# xmcd
#
# Track frame offsets: 
#        150
#        11950
#        24757
#        38330
#        49315
#        62197
#        74130
#        88322
#        106105
#        125062
#        135267
#
# Disc length: 2034 seconds
#
# Revision: 0
# Processed by: cddbd v1.4PL0 Copyright (c) Steve Scherf et al.
# Submitted via: ExactAudioCopy v0.90b3
#
DISCID=9607f00b
DTITLE=The Long Ryders - Native Songs
DYEAR=1984
DGENRE=Country
TTITLE0=Final Wild Son
TTITLE1=Still Get By
TTITLE2=Ivory Tower
TTITLE3=Run Dusty Run
TTITLE4=(Sweet) Mental Revenge
TTITLE5=Fair Game
TTITLE6=Tell It To The Judge On Sunday
TTITLE7=Wreck Of The 809
TTITLE8=Too Close To The Light
TTITLE9=Never Got To Meet The Mom
TTITLE10=I Had A Dream
EXTD=
EXTT0=
EXTT1=
EXTT2=
EXTT3=
EXTT4=
EXTT5=
EXTT6=
EXTT7=
EXTT8=
EXTT9=
EXTT10=
PLAYORDER=
